<?xml version="1.0" encoding="UTF-8"?>
<svg width="800" height="400" viewBox="0 0 800 400" fill="none" xmlns="http://www.w3.org/2000/svg">
  <rect width="800" height="400" fill="#1F1F22"/>
  <!-- Father -->
  <circle cx="300" cy="150" r="40" stroke="#5C5C7B" stroke-width="8"/>
  <path d="M300 190V280" stroke="#5C5C7B" stroke-width="8" stroke-linecap="round" stroke-linejoin="round"/>
  <path d="M260 220L340 220" stroke="#5C5C7B" stroke-width="8" stroke-linecap="round" stroke-linejoin="round"/>
  <path d="M300 280L260 340" stroke="#5C5C7B" stroke-width="8" stroke-linecap="round" stroke-linejoin="round"/>
  <path d="M300 280L340 340" stroke="#5C5C7B" stroke-width="8" stroke-linecap="round" stroke-linejoin="round"/>
  
  <!-- Mother -->
  <circle cx="500" cy="150" r="40" stroke="#5C5C7B" stroke-width="8"/>
  <path d="M500 190V240" stroke="#5C5C7B" stroke-width="8" stroke-linecap="round" stroke-linejoin="round"/>
  <path d="M460 240L540 240" stroke="#5C5C7B" stroke-width="8" stroke-linecap="round" stroke-linejoin="round"/>
  <path d="M480 240L460 340" stroke="#5C5C7B" stroke-width="8" stroke-linecap="round" stroke-linejoin="round"/>
  <path d="M520 240L540 340" stroke="#5C5C7B" stroke-width="8" stroke-linecap="round" stroke-linejoin="round"/>
  
  <!-- Connection line -->
  <path d="M340 150L460 150" stroke="#5C5C7B" stroke-width="8" stroke-linecap="round" stroke-linejoin="round"/>
  
  <!-- Child 1 -->
  <circle cx="400" cy="250" r="30" stroke="#5C5C7B" stroke-width="8"/>
  <path d="M400 280V330" stroke="#5C5C7B" stroke-width="8" stroke-linecap="round" stroke-linejoin="round"/>
  <path d="M370 300L430 300" stroke="#5C5C7B" stroke-width="8" stroke-linecap="round" stroke-linejoin="round"/>
  <path d="M400 330L380 360" stroke="#5C5C7B" stroke-width="8" stroke-linecap="round" stroke-linejoin="round"/>
  <path d="M400 330L420 360" stroke="#5C5C7B" stroke-width="8" stroke-linecap="round" stroke-linejoin="round"/>
  
  <!-- Connection line to child -->
  <path d="M400 150V220" stroke="#5C5C7B" stroke-width="8" stroke-linecap="round" stroke-linejoin="round"/>
</svg>
