<?xml version="1.0" encoding="UTF-8"?>
<svg width="24" height="24" viewBox="0 0 24 24" fill="none" xmlns="http://www.w3.org/2000/svg">
  <path d="M8 9C9.65685 9 11 7.65685 11 6C11 4.34315 9.65685 3 8 3C6.34315 3 5 4.34315 5 6C5 7.65685 6.34315 9 8 9Z" stroke="#5C5C7B" stroke-width="1.5" stroke-linecap="round" stroke-linejoin="round"/>
  <path d="M16 9C17.6569 9 19 7.65685 19 6C19 4.34315 17.6569 3 16 3C14.3431 3 13 4.34315 13 6C13 7.65685 14.3431 9 16 9Z" stroke="#5C5C7B" stroke-width="1.5" stroke-linecap="round" stroke-linejoin="round"/>
  <path d="M12 14C13.1046 14 14 13.1046 14 12C14 10.8954 13.1046 10 12 10C10.8954 10 10 10.8954 10 12C10 13.1046 10.8954 14 12 14Z" stroke="#5C5C7B" stroke-width="1.5" stroke-linecap="round" stroke-linejoin="round"/>
  <path d="M4 21V19C4 17.3431 5.34315 16 7 16H9C10.6569 16 12 17.3431 12 19V21" stroke="#5C5C7B" stroke-width="1.5" stroke-linecap="round" stroke-linejoin="round"/>
  <path d="M12 21V19C12 17.3431 13.3431 16 15 16H17C18.6569 16 20 17.3431 20 19V21" stroke="#5C5C7B" stroke-width="1.5" stroke-linecap="round" stroke-linejoin="round"/>
</svg>
